<svg width="25" height="25" viewBox="0 0 25 25" fill="none" xmlns="http://www.w3.org/2000/svg">
<mask id="mask0_562_95" style="mask-type:alpha" maskUnits="userSpaceOnUse" x="0" y="0" width="25" height="25">
<rect width="25" height="25" fill="#D9D9D9"/>
</mask>
<g mask="url(#mask0_562_95)">
<path d="M7.29199 21.875C6.71908 21.875 6.22862 21.671 5.82064 21.263C5.41265 20.855 5.20866 20.3646 5.20866 19.7917V6.25H4.16699V4.16667H9.37533V3.125H15.6253V4.16667H20.8337V6.25H19.792V19.7917C19.792 20.3646 19.588 20.855 19.18 21.263C18.772 21.671 18.2816 21.875 17.7087 21.875H7.29199ZM17.7087 6.25H7.29199V19.7917H17.7087V6.25ZM9.37533 17.7083H11.4587V8.33333H9.37533V17.7083ZM13.542 17.7083H15.6253V8.33333H13.542V17.7083Z" fill="#C2D7E4"/>
</g>
</svg>
