<svg width="25" height="25" viewBox="0 0 25 25" fill="none" xmlns="http://www.w3.org/2000/svg">
<mask id="mask0_562_89" style="mask-type:alpha" maskUnits="userSpaceOnUse" x="0" y="0" width="25" height="25">
<rect width="25" height="25" fill="#D9D9D9"/>
</mask>
<g mask="url(#mask0_562_89)">
<path d="M5.20833 19.7917H6.69271L16.875 9.60937L15.3906 8.125L5.20833 18.3073V19.7917ZM3.125 21.875V17.4479L16.875 3.72396C17.0833 3.53299 17.3134 3.38542 17.5651 3.28125C17.8168 3.17708 18.0816 3.125 18.3594 3.125C18.6372 3.125 18.9062 3.17708 19.1667 3.28125C19.4271 3.38542 19.6528 3.54167 19.8438 3.75L21.276 5.20833C21.4844 5.39931 21.6363 5.625 21.7318 5.88542C21.8273 6.14583 21.875 6.40625 21.875 6.66667C21.875 6.94444 21.8273 7.2092 21.7318 7.46094C21.6363 7.71267 21.4844 7.94271 21.276 8.15104L7.55208 21.875H3.125ZM16.1198 8.88021L15.3906 8.125L16.875 9.60937L16.1198 8.88021Z" fill="#C2D7E4"/>
</g>
</svg>
