<?xml version="1.0" encoding="UTF-8"?>
<!DOCTYPE svg PUBLIC "-//W3C//DTD SVG 1.1//EN" "http://www.w3.org/Graphics/SVG/1.1/DTD/svg11.dtd">
<svg xmlns="http://www.w3.org/2000/svg" version="1.1" width="902px" height="1000px" style="shape-rendering:geometricPrecision; text-rendering:geometricPrecision; image-rendering:optimizeQuality; fill-rule:evenodd; clip-rule:evenodd" xmlns:xlink="http://www.w3.org/1999/xlink">
<g><path style="opacity:0.999" fill="#fff" d="M 578.5,137.5 C 578.5,138.167 578.167,138.5 577.5,138.5C 565.906,127.74 553.573,117.906 540.5,109C 491.486,78.036 450.653,86.2026 418,133.5C 398.585,166.41 386.752,201.91 382.5,240C 345.239,253.964 309.239,270.631 274.5,290C 247.376,305.95 222.376,324.784 199.5,346.5C 194.652,273.94 206.818,203.94 236,136.5C 240.294,128.044 244.794,119.71 249.5,111.5C 250.906,111.027 251.573,110.027 251.5,108.5C 251.328,107.508 251.662,106.842 252.5,106.5C 253.906,106.027 254.573,105.027 254.5,103.5C 256.782,99.2229 259.449,95.2229 262.5,91.5C 263.906,91.0269 264.573,90.0269 264.5,88.5C 319.652,14.5636 388.319,-0.936432 470.5,42C 512.138,67.4257 548.138,99.259 578.5,137.5 Z"/></g>
<g><path style="opacity:0.506" fill="#868686" d="M 264.5,88.5 C 264.573,90.0269 263.906,91.0269 262.5,91.5C 262.427,89.9731 263.094,88.9731 264.5,88.5 Z"/></g>
<g><path style="opacity:0.494" fill="#878787" d="M 254.5,103.5 C 254.573,105.027 253.906,106.027 252.5,106.5C 252.427,104.973 253.094,103.973 254.5,103.5 Z"/></g>
<g><path style="opacity:0.506" fill="#878787" d="M 251.5,108.5 C 251.573,110.027 250.906,111.027 249.5,111.5C 249.427,109.973 250.094,108.973 251.5,108.5 Z"/></g>
<g><path style="opacity:0.867" fill="#a4a4a4" d="M 578.5,137.5 C 582.784,140.752 586.118,144.752 588.5,149.5C 584.5,146.167 580.833,142.5 577.5,138.5C 578.167,138.5 578.5,138.167 578.5,137.5 Z"/></g>
<g><path style="opacity:0.369" fill="#7d7e7d" d="M 588.5,149.5 C 589.167,149.5 589.5,149.833 589.5,150.5C 589.167,150.167 588.833,149.833 588.5,149.5 Z"/></g>
<g><path style="opacity:0.259" fill="#606160" d="M 589.5,150.5 C 590.833,151.167 590.833,151.167 589.5,150.5 Z"/></g>
<g><path style="opacity:0.071" fill="#303130" d="M 591.5,152.5 C 592.833,153.167 592.833,153.167 591.5,152.5 Z"/></g>
<g><path style="opacity:0.999" fill="#fdfdfd" d="M 803.5,558.5 C 802.662,558.158 802.328,557.492 802.5,556.5C 814.69,535.783 823.857,513.783 830,490.5C 838.045,460.135 829.878,435.469 805.5,416.5C 805.027,415.094 804.027,414.427 802.5,414.5C 783.393,404.805 763.06,399.305 741.5,398C 704.441,395.834 667.441,398.167 630.5,405C 508.382,428.369 393.382,470.702 285.5,532C 248.218,553.111 213.885,578.277 182.5,607.5C 164.497,623.835 150.664,643.168 141,665.5C 131.709,691.883 136.543,715.217 155.5,735.5C 174.107,752.646 195.44,765.48 219.5,774C 229.51,777.34 239.51,780.673 249.5,784C 201.31,784.745 154.643,776.412 109.5,759C 98.9994,754.585 88.9994,749.418 79.5,743.5C 79.0269,742.094 78.0269,741.427 76.5,741.5C 23.2176,707.602 0.0509704,659.269 7,596.5C 10.1784,572.78 17.5117,550.447 29,529.5C 35.0922,520.26 40.9256,510.926 46.5,501.5C 47.9063,501.027 48.573,500.027 48.5,498.5C 49.3507,496.118 50.684,494.118 52.5,492.5C 53.9063,492.027 54.573,491.027 54.5,489.5C 55.9063,489.027 56.573,488.027 56.5,486.5C 76.7665,458.059 100.433,432.559 127.5,410C 188.296,360.905 254.963,320.905 327.5,290C 427.58,246.355 532.08,221.188 641,214.5C 683.604,213.078 725.771,217.578 767.5,228C 806.336,237.817 838.836,257.651 865,287.5C 902.945,340.127 906.945,395.127 877,452.5C 856.146,490.494 831.646,525.827 803.5,558.5 Z"/></g>
<g><path style="opacity:0.506" fill="#868686" d="M 802.5,414.5 C 804.027,414.427 805.027,415.094 805.5,416.5C 803.973,416.573 802.973,415.906 802.5,414.5 Z"/></g>
<g><path style="opacity:0.494" fill="#818181" d="M 56.5,486.5 C 56.573,488.027 55.9063,489.027 54.5,489.5C 54.427,487.973 55.0937,486.973 56.5,486.5 Z"/></g>
<g><path style="opacity:0.514" fill="#888888" d="M 54.5,489.5 C 54.573,491.027 53.9063,492.027 52.5,492.5C 52.427,490.973 53.0937,489.973 54.5,489.5 Z"/></g>
<g><path style="opacity:0.506" fill="#868686" d="M 48.5,498.5 C 48.573,500.027 47.9063,501.027 46.5,501.5C 46.427,499.973 47.0937,498.973 48.5,498.5 Z"/></g>
<g><path style="opacity:0.999" fill="#fdfdfd" d="M 715.5,806.5 C 716.906,806.027 717.573,805.027 717.5,803.5C 725.606,788.283 732.94,772.616 739.5,756.5C 740.451,757.919 740.784,759.585 740.5,761.5C 730.218,824.575 705.718,881.242 667,931.5C 653.525,946.656 638.025,959.156 620.5,969C 599.632,979.268 577.632,982.934 554.5,980C 526.961,976.819 500.961,968.819 476.5,956C 454.438,943.639 433.772,929.306 414.5,913C 374.191,875.053 340.357,832.22 313,784.5C 278.641,725.461 252.307,663.128 234,597.5C 266.621,566.92 303.455,542.42 344.5,524C 362.125,516.07 379.792,508.236 397.5,500.5C 421.485,587.285 456.651,669.285 503,746.5C 521.017,775.981 542.517,802.814 567.5,827C 625.128,878.465 674.461,871.632 715.5,806.5 Z"/></g>
<g><path style="opacity:0.875" fill="#acacac" d="M 802.5,556.5 C 802.328,557.492 802.662,558.158 803.5,558.5C 801.628,561.582 799.295,564.249 796.5,566.5C 798.11,562.9 800.11,559.566 802.5,556.5 Z"/></g>
<g><path style="opacity:0.251" fill="#5f605f" d="M 796.5,566.5 C 795.833,567.167 795.833,567.167 796.5,566.5 Z"/></g>
<g><path style="opacity:0.494" fill="#868686" d="M 76.5,741.5 C 78.0269,741.427 79.0269,742.094 79.5,743.5C 77.9731,743.573 76.9731,742.906 76.5,741.5 Z"/></g>
<g><path style="opacity:0.063" fill="#404040" d="M 741.5,753.5 C 741.167,753.5 740.833,753.5 740.5,753.5C 742.17,750.895 742.504,750.895 741.5,753.5 Z"/></g>
<g><path style="opacity:0.624" fill="#989898" d="M 740.5,753.5 C 740.833,753.5 741.167,753.5 741.5,753.5C 741.806,756.385 741.473,759.052 740.5,761.5C 740.784,759.585 740.451,757.919 739.5,756.5C 739.557,755.391 739.89,754.391 740.5,753.5 Z"/></g>
<g><path style="opacity:0.494" fill="#868686" d="M 717.5,803.5 C 717.573,805.027 716.906,806.027 715.5,806.5C 715.427,804.973 716.094,803.973 717.5,803.5 Z"/></g>
</svg>
