<?xml version="1.0" standalone="no"?>
<!DOCTYPE svg PUBLIC "-//W3C//DTD SVG 20010904//EN"
 "http://www.w3.org/TR/2001/REC-SVG-20010904/DTD/svg10.dtd">
<svg version="1.0" xmlns="http://www.w3.org/2000/svg"
 width="1000.000000pt" height="1000.000000pt" viewBox="0 0 1000.000000 1000.000000"
 preserveAspectRatio="xMidYMid meet">

<g transform="translate(0.000000,1000.000000) scale(0.100000,-0.100000)"
fill="#000" stroke="none">
<path d="M0 5000 l0 -5000 5000 0 5000 0 0 5000 0 5000 -5000 0 -5000 0 0
-5000z m4605 4780 c360 -76 736 -284 1115 -617 98 -86 314 -304 416 -418 126
-142 187 -215 178 -215 -4 0 -43 36 -88 79 -150 146 -350 297 -488 367 -502
255 -914 83 -1206 -501 -108 -217 -204 -522 -232 -736 -7 -52 -16 -105 -20
-119 -7 -27 -7 -27 -310 -150 -231 -94 -286 -119 -477 -216 -352 -179 -618
-352 -873 -568 -52 -44 -99 -85 -105 -91 -5 -5 -25 -24 -44 -40 l-33 -30 5
315 c10 550 79 972 237 1432 224 657 578 1136 1021 1381 119 67 307 126 474
151 74 11 333 -4 430 -24z m2830 -1950 c927 -79 1544 -406 1823 -965 80 -162
128 -330 157 -550 19 -150 12 -251 -32 -419 -63 -245 -196 -516 -408 -836
-146 -221 -389 -543 -509 -675 l-37 -40 39 65 c298 505 383 887 260 1173 -82
189 -310 337 -618 401 -687 140 -1846 -57 -3150 -537 -202 -75 -547 -217 -745
-307 -33 -15 -82 -37 -110 -50 -123 -55 -476 -236 -645 -330 -505 -281 -901
-563 -1180 -840 -321 -318 -462 -574 -462 -837 0 -196 89 -365 275 -523 163
-139 474 -292 782 -387 l60 -18 -60 -3 c-118 -7 -476 33 -710 79 -758 148
-1274 475 -1506 954 -102 211 -140 384 -141 635 0 333 101 672 289 972 26 42
77 124 112 182 801 1310 3135 2540 5356 2821 325 41 885 58 1160 35z m-2941
-3041 c193 -678 512 -1438 845 -2018 381 -663 780 -1114 1148 -1299 157 -80
345 -109 492 -78 283 60 530 308 746 751 45 94 95 203 111 243 15 39 29 70 32
68 8 -9 -30 -210 -69 -366 -157 -618 -447 -1180 -780 -1510 -309 -306 -628
-425 -1024 -380 -617 71 -1209 420 -1751 1035 -547 620 -1047 1535 -1362 2495
-34 102 -67 206 -74 233 l-12 47 49 51 c179 184 506 408 870 595 205 105 711
337 721 330 1 -1 27 -89 58 -197z"/>
</g>
</svg>
