<svg xmlns="http://www.w3.org/2000/svg" width="480" height="480" viewBox="0 0 480 480" version="1.1"><path d="M 304 149.518 C 296.691 151.581, 294.740 152.557, 289.245 156.901 C 265.730 175.488, 263.189 217.014, 284.525 234.032 C 293.882 241.495, 307.550 246, 320.836 246 C 337.032 246, 348.859 241.279, 359.520 230.559 C 366.833 223.205, 369.867 218.250, 370.426 212.748 C 370.607 210.961, 371.073 208.308, 371.461 206.851 C 372.462 203.091, 369.604 189.096, 366.359 181.864 C 359.859 167.381, 345.483 154.700, 330.217 149.985 C 322.853 147.711, 311.144 147.502, 304 149.518 M 146 160.034 C 120.243 166.643, 105.339 184.039, 99.078 214.799 C 95.879 230.519, 100.256 247.382, 109.332 254.304 C 116.030 259.413, 120.416 260.505, 134 260.444 C 150.907 260.369, 162.448 256.714, 175.097 247.429 C 197.165 231.229, 205.128 201.947, 193.633 179.263 C 190.740 173.553, 181.488 164.527, 176.261 162.315 C 165.224 157.645, 157.565 157.067, 146 160.034 M 298.500 160.396 C 292.365 163.194, 284.874 170.627, 281.916 176.851 C 279.256 182.448, 278.284 193.672, 279.931 199.763 C 281.324 204.911, 285.766 210.192, 291.560 213.588 C 295.233 215.740, 297.070 216.100, 304.393 216.100 C 325.335 216.100, 340 204.162, 340 187.115 C 340 173.901, 331.797 163.876, 317.416 159.513 C 310.564 157.434, 304.358 157.724, 298.500 160.396 M 149.352 170.099 C 141.520 172.535, 134.084 179.016, 130.550 186.486 C 128.409 191.011, 128.004 193.290, 128.022 200.688 C 128.047 210.624, 129.591 215.187, 135.024 221.374 C 139.580 226.564, 145.252 229.210, 153.013 229.767 C 158.702 230.176, 160.370 229.852, 166.196 227.210 C 191.654 215.667, 195.647 181.976, 172.921 170.460 C 166.919 167.419, 158.390 167.288, 149.352 170.099 M 298.744 172.528 C 294.269 175.569, 292.831 179.672, 295.544 181.656 C 296.555 182.395, 297.986 183, 298.723 183 C 301.861 183, 306.979 179.941, 308.382 177.228 C 309.732 174.618, 309.733 174.064, 308.392 172.149 C 306.405 169.312, 303.297 169.434, 298.744 172.528 M 149.500 181.167 C 143.465 184.505, 141.058 190.143, 144.461 192.968 C 147.660 195.623, 158 189.468, 158 184.908 C 158 180.924, 153.511 178.948, 149.500 181.167 M 314.404 190.064 C 307.407 192.756, 301.809 198.445, 302.203 202.464 C 302.464 205.132, 302.923 205.540, 305.989 205.831 C 313.362 206.531, 322.897 201.523, 327.412 194.579 C 329.336 191.621, 329.691 190.333, 328.858 189.329 C 327.279 187.427, 320.344 187.779, 314.404 190.064 M 163.329 200.427 C 150.239 206.522, 145.180 219, 155.799 219 C 164.685 219, 176.876 207.920, 176.978 199.750 C 177.011 197.113, 169.665 197.477, 163.329 200.427 M 230.479 224.250 C 226.085 234.990, 224.297 258.341, 227.654 261.128 C 229.482 262.645, 243.505 263.058, 248.235 261.735 C 253.150 260.360, 253.015 254.268, 247.777 241 C 244.082 231.641, 236.132 220, 233.434 220 C 232.765 220, 231.435 221.912, 230.479 224.250" stroke="none" fill="#ffffff" fill-rule="evenodd"/><path d="M 443.787 67.750 L 439.149 72.500 443.707 77.493 L 448.265 82.486 449.883 80.017 C 450.772 78.659, 452.797 76.060, 454.382 74.242 L 457.263 70.936 452.965 66.968 C 450.601 64.786, 448.613 63, 448.546 63 C 448.479 63, 446.338 65.138, 443.787 67.750 M 45.242 71.018 C 43.451 73.758, 41.538 76, 40.992 76 C 40.447 76, 40 76.442, 40 76.981 C 40 78.047, 46.181 86.837, 47.002 86.938 C 47.278 86.972, 48.528 85.070, 49.779 82.710 C 51.031 80.351, 53.237 77.146, 54.681 75.589 L 57.306 72.757 53.403 69.416 C 51.256 67.579, 49.275 66.066, 49 66.056 C 48.725 66.045, 47.034 68.278, 45.242 71.018 M 13.308 248.766 L 10.282 252.532 14.641 256.919 C 17.038 259.331, 19 260.821, 19 260.229 C 19 259.637, 20.552 257.120, 22.450 254.634 L 25.899 250.115 21.324 247.557 C 18.807 246.151, 16.655 245, 16.541 245 C 16.428 245, 14.973 246.695, 13.308 248.766 M 435.228 266.848 C 434.534 268.414, 431.440 272.488, 428.352 275.900 L 422.737 282.105 427.401 286.769 C 429.966 289.335, 433.240 293.836, 434.677 296.772 C 436.114 299.709, 437.618 301.749, 438.021 301.305 C 438.424 300.862, 439.971 298.250, 441.460 295.500 C 442.949 292.750, 446.640 287.976, 449.663 284.890 L 455.159 279.281 449.770 276.239 C 444.610 273.327, 438 266.996, 438 264.965 C 438 263.025, 436.455 264.074, 435.228 266.848 M 23.242 319.018 C 21.451 321.758, 19.538 324, 18.992 324 C 16.972 324, 18.093 326.692, 21.011 328.850 C 22.667 330.074, 25.202 332.859, 26.644 335.038 C 28.086 337.217, 29.569 339, 29.940 339 C 30.312 339, 31.422 337.172, 32.408 334.937 C 33.394 332.702, 35.955 329.029, 38.100 326.774 C 40.245 324.519, 42 322.507, 42 322.302 C 42 322.097, 39.923 321.039, 37.385 319.951 C 34.847 318.863, 31.515 317.079, 29.981 315.986 C 28.447 314.894, 27.036 314.008, 26.846 314.018 C 26.656 314.028, 25.034 316.278, 23.242 319.018 M 455.795 338.137 L 453.090 341.037 455.144 344.519 C 456.273 346.433, 457.543 348, 457.966 348 C 458.749 348, 464 340.544, 464 339.432 C 464 338.699, 459.713 335.030, 459 335.152 C 458.725 335.199, 457.283 336.542, 455.795 338.137" stroke="none" fill="#ffdc43" fill-rule="evenodd"/><path d="M 443.250 67.109 C 440.363 69.906, 438 72.404, 438 72.662 C 438 72.919, 439.251 74.181, 440.779 75.468 C 442.308 76.754, 444.184 78.975, 444.948 80.403 C 446.244 82.824, 450 84.094, 450 82.111 C 450 81.622, 449.438 81.285, 448.750 81.361 C 448.063 81.438, 445.589 79.426, 443.253 76.892 L 439.007 72.284 444.444 67.142 C 447.434 64.314, 449.570 62.006, 449.190 62.012 C 448.811 62.019, 446.137 64.313, 443.250 67.109 M 453.487 67.354 L 457.473 70.897 454.487 74.198 L 451.500 77.500 454.750 74.563 C 456.538 72.948, 458 71.298, 458 70.897 C 458 70.496, 456.087 68.738, 453.750 66.989 L 449.500 63.811 453.487 67.354 M 39.079 77.076 C 39.036 77.942, 40.237 79.742, 41.750 81.076 L 44.500 83.500 42.377 81 C 41.210 79.625, 40.008 77.825, 39.706 77 C 39.237 75.716, 39.147 75.726, 39.079 77.076 M 49.386 83.250 C 48.470 85.037, 47.221 86.831, 46.610 87.235 C 45.829 87.752, 45.864 87.974, 46.730 87.985 C 47.406 87.993, 48.878 86.200, 50 84 C 51.122 81.800, 51.818 80, 51.546 80 C 51.274 80, 50.302 81.463, 49.386 83.250 M 235 89.279 C 234.725 89.571, 230.900 90.050, 226.500 90.344 C 211.272 91.358, 202.917 92.785, 178.250 98.588 C 169.946 100.541, 161.192 103.123, 156.500 105.003 C 155.400 105.444, 151.575 106.833, 148 108.091 C 144.425 109.348, 140.024 111.192, 138.220 112.189 C 136.415 113.185, 134.509 114, 133.983 114 C 131.534 114, 118.385 122.954, 115.259 126.750 C 113.334 129.088, 111.322 131, 110.787 131 C 110.253 131, 108.700 130.123, 107.337 129.050 C 102.633 125.351, 94.389 123.671, 80.500 123.583 C 64.667 123.482, 57.014 124.999, 47 130.225 C 30.708 138.726, 22 151.901, 22 168.049 C 22 174.139, 22.509 176.693, 24.593 181.063 C 27.591 187.348, 32.207 192.550, 36.500 194.481 C 40.217 196.152, 49.777 197.031, 52.598 195.961 C 53.752 195.523, 57.034 192.227, 59.892 188.636 C 62.749 185.045, 66 181.818, 67.115 181.463 C 69.346 180.755, 73 183.374, 73 185.682 C 73 186.436, 70.552 190.021, 67.560 193.649 C 55.519 208.246, 48 228.762, 48 247.016 C 48 255.848, 49.088 262, 52.597 273 C 58.714 292.181, 77.885 310.952, 99 318.437 L 103.500 320.032 106.500 316.297 C 116.022 304.442, 127.085 296.054, 139.500 291.276 C 152.557 286.250, 156.581 285.500, 170.500 285.500 C 181.912 285.500, 184.233 285.794, 189.500 287.911 C 208.307 295.466, 217.346 312.056, 212.595 330.297 C 209.965 340.392, 202.947 352.258, 198.993 353.291 C 197.344 353.723, 196.551 353.127, 195.308 350.519 C 193.814 347.387, 193.841 347.032, 195.780 344.309 C 196.912 342.720, 199.315 338.738, 201.121 335.460 C 203.927 330.365, 204.411 328.484, 204.452 322.500 C 204.577 304.301, 192.094 294.039, 169.799 294.011 C 152.425 293.989, 133.636 301.416, 122.243 312.810 C 104.253 330.800, 95.379 356.025, 91.024 401.549 C 90.156 410.629, 90.504 439.380, 91.547 444.608 C 91.829 446.023, 93.533 447.337, 96.733 448.608 C 101.338 450.436, 106.510 450.497, 248.500 450.401 C 353.098 450.330, 396.275 449.983, 398.188 449.199 C 400.483 448.258, 400.868 447.518, 400.821 444.141 C 400.791 441.966, 401.040 439.745, 401.374 439.205 C 402.191 437.882, 403.287 425.233, 403.384 416 C 403.615 393.954, 399.887 363.306, 394.929 346.500 C 386.953 319.463, 377.328 303.429, 363.193 293.634 C 350.128 284.580, 328.333 283.322, 310 290.565 C 296.388 295.943, 285.511 307.913, 283.546 319.679 C 282.649 325.049, 285.201 335.263, 288.529 339.627 C 291.599 343.652, 291.622 345.067, 288.662 347.847 L 286.325 350.043 283.635 347.927 C 278.645 344.002, 274.025 332.021, 274.023 323 C 274.022 318.088, 275.869 311.107, 278.560 305.852 C 283.070 297.046, 295.167 286.391, 305 282.563 C 317.437 277.722, 318.187 277.592, 334 277.545 C 350.868 277.496, 352.860 277.898, 364.349 283.663 C 372.276 287.640, 370.755 288.101, 384.416 277.590 C 394.155 270.097, 404.322 257.678, 409.690 246.720 C 415.579 234.696, 419.976 215.765, 419.992 202.364 L 420 196.227 415.250 195.518 C 412.637 195.128, 409.230 194.065, 407.679 193.155 C 405.325 191.774, 404.952 191.024, 405.429 188.625 C 405.743 187.044, 406 185.307, 406 184.766 C 406 184.175, 407.500 184.051, 409.750 184.456 C 417.985 185.936, 425.245 186.145, 428.320 184.989 C 440.665 180.349, 448.563 173.798, 452.988 164.525 C 455.474 159.315, 456 156.957, 456 151.011 C 456 144.865, 455.497 142.758, 452.571 136.654 C 447.750 126.597, 437.345 116.652, 426 111.257 C 418.973 107.916, 397.140 103.177, 394.965 104.522 C 394.601 104.747, 389.622 105.375, 383.901 105.919 C 374.252 106.836, 364.911 108.924, 360.764 111.092 C 357.789 112.647, 354.495 112.107, 348.390 109.062 C 342.789 106.268, 329.553 101.344, 322 99.243 C 308.529 95.498, 297.361 93.062, 288.500 91.937 C 284.650 91.449, 279.925 90.846, 278 90.598 C 272.076 89.836, 235.531 88.715, 235 89.279 M 300.083 140.527 C 280.338 146.058, 265.327 164.485, 261.058 188.434 C 259.360 197.956, 260.264 212.877, 262.939 219.500 C 267.627 231.106, 276.209 241.619, 284.826 246.309 C 306.201 257.942, 332.720 258.819, 352.303 248.538 C 359.530 244.745, 366.381 239.067, 371.624 232.527 C 377.073 225.729, 378.793 221.631, 380.081 212.375 C 382.732 193.310, 376.138 172.985, 363.070 159.944 C 354.717 151.609, 351.085 148.909, 341.363 143.812 L 333.500 139.690 319.500 139.350 C 309.159 139.098, 304.084 139.406, 300.083 140.527 M 300.878 149.309 C 288.759 153.440, 279.939 162.153, 273.383 176.474 C 272.010 179.474, 270.667 183.633, 270.400 185.715 C 270.063 188.331, 270.676 187.227, 272.385 182.137 C 276.735 169.179, 287.981 155.305, 296.983 151.791 C 307.828 147.557, 320.182 146.886, 330.217 149.985 C 336.417 151.900, 346.271 157.557, 352.497 162.775 C 357.227 166.739, 363.363 175.189, 366.359 181.864 C 369.604 189.096, 372.462 203.091, 371.461 206.851 C 371.073 208.308, 370.607 210.961, 370.426 212.748 C 369.867 218.250, 366.833 223.205, 359.520 230.559 C 351.966 238.155, 345.605 241.805, 335.356 244.428 C 326.715 246.639, 314.077 246.448, 305.141 243.972 C 281.388 237.389, 270.202 223.248, 269.880 199.392 C 269.766 190.986, 269.703 190.738, 268.716 194.851 C 267.303 200.747, 269.844 215.005, 273.658 222.584 C 280.967 237.107, 300.631 247.379, 321 247.314 C 337.153 247.263, 350.092 241.997, 361.024 231.023 C 368.545 223.472, 370.761 219.385, 372.142 210.515 C 373.409 202.379, 371.124 188.154, 367.352 180.700 C 356.843 159.927, 337.119 146.963, 316.120 147.026 C 309.849 147.045, 305.696 147.667, 300.878 149.309 M 148.500 149.482 C 124.276 154.824, 109.303 165.309, 99.208 184 C 97.574 187.025, 95.909 190.625, 95.507 192 C 95.106 193.375, 94.219 195.850, 93.537 197.500 C 90.110 205.790, 87.144 229.618, 88.948 234.364 C 89.527 235.885, 90 238.096, 90 239.276 C 90 244.064, 94.575 253.282, 99.500 258.415 C 108.689 267.993, 120.072 271.658, 137.500 270.649 C 147.176 270.089, 148.794 269.882, 152 268.792 C 152.825 268.512, 155.300 267.739, 157.500 267.075 C 173.072 262.375, 186.189 253.347, 195.387 241 C 204.653 228.561, 208.354 217.360, 208.440 201.500 C 208.505 189.575, 207.658 185.854, 202.403 174.983 C 197.445 164.727, 186.341 155.252, 174.500 151.172 C 171.037 149.979, 159.245 147.962, 156.418 148.079 C 155.363 148.123, 151.800 148.754, 148.500 149.482 M 147 158.466 C 122.153 164.781, 107.118 179.841, 99.842 205.700 C 96.636 217.094, 96.646 235.176, 99.863 243.266 C 103.006 251.172, 105.995 254.380, 113.791 258.218 C 120.330 261.437, 120.718 261.500, 133.979 261.500 C 144.515 261.500, 148.824 261.079, 153.500 259.593 C 156.800 258.544, 159.927 257.307, 160.450 256.843 C 160.972 256.379, 161.918 256, 162.550 256 C 165.300 256, 177.031 247.969, 183 242 C 194.110 230.890, 200 216.912, 200 201.656 C 200 191.701, 199.250 188.472, 194.799 179.251 C 188.765 166.750, 175.515 158.173, 160 156.725 C 157.327 156.476, 152.049 157.182, 147 158.466 M 146 160.034 C 120.243 166.643, 105.339 184.039, 99.078 214.799 C 95.879 230.519, 100.256 247.382, 109.332 254.304 C 116.030 259.413, 120.416 260.505, 134 260.444 C 150.907 260.369, 162.448 256.714, 175.097 247.429 C 197.165 231.229, 205.128 201.947, 193.633 179.263 C 190.740 173.553, 181.488 164.527, 176.261 162.315 C 165.224 157.645, 157.565 157.067, 146 160.034 M 298.500 160.396 C 292.365 163.194, 284.874 170.627, 281.916 176.851 C 279.256 182.448, 278.284 193.672, 279.931 199.763 C 281.324 204.911, 285.766 210.192, 291.560 213.588 C 295.233 215.740, 297.070 216.100, 304.393 216.100 C 314 216.100, 320.018 214.457, 327.173 209.879 C 334.256 205.349, 340.121 196.562, 339.921 190.782 C 339.844 188.558, 339.821 188.564, 339.009 191 C 338.550 192.375, 337.895 194.764, 337.554 196.309 C 336.594 200.649, 329.420 207.668, 322.426 211.111 C 315.568 214.487, 306.710 215.783, 298.704 214.583 C 278.738 211.589, 273.327 184.830, 289.380 168.472 C 298.821 158.852, 309.162 157.015, 322 162.678 C 331.263 166.764, 336.104 172.563, 338.549 182.500 C 339.604 186.789, 339.795 187.049, 339.889 184.333 C 340.132 177.399, 334.036 167.863, 326.560 163.482 C 316.764 157.741, 306.738 156.638, 298.500 160.396 M 149.352 170.099 C 141.520 172.535, 134.084 179.016, 130.550 186.486 C 128.409 191.011, 128.004 193.290, 128.022 200.688 C 128.047 210.624, 129.591 215.187, 135.024 221.374 C 139.580 226.564, 145.252 229.210, 153.013 229.767 C 158.702 230.176, 160.370 229.852, 166.196 227.210 C 191.654 215.667, 195.647 181.976, 172.921 170.460 C 166.919 167.419, 158.390 167.288, 149.352 170.099 M 150.715 170.999 C 141.390 173.927, 136.608 177.770, 132.045 186 C 129.859 189.944, 129.547 191.736, 129.525 200.500 C 129.502 209.727, 129.728 210.912, 132.449 215.824 C 137.333 224.640, 143.472 228.145, 154.131 228.203 C 160.891 228.239, 162.469 227.867, 167.957 224.942 C 182.360 217.266, 189.660 201.666, 185.519 187.413 C 184.177 182.796, 182.672 180.373, 178.650 176.360 C 171.056 168.780, 162.817 167.199, 150.715 170.999 M 297.003 172.616 C 292.702 176.502, 291.896 179.753, 294.571 182.429 C 299.859 187.716, 312.715 179.641, 310.073 172.693 C 308.196 167.754, 302.422 167.721, 297.003 172.616 M 298.744 172.528 C 294.269 175.569, 292.831 179.672, 295.544 181.656 C 296.555 182.395, 297.986 183, 298.723 183 C 301.861 183, 306.979 179.941, 308.382 177.228 C 309.732 174.618, 309.733 174.064, 308.392 172.149 C 306.405 169.312, 303.297 169.434, 298.744 172.528 M 147.500 180.842 C 145.850 181.850, 143.908 183.392, 143.185 184.268 C 141.452 186.368, 142.036 193.206, 144 193.798 C 145.211 194.163, 145.259 193.994, 144.250 192.925 C 141.999 190.539, 142.786 186.358, 145.995 183.658 C 150.016 180.274, 152.761 179.534, 155.619 181.064 C 160.284 183.560, 157.735 189.470, 150.667 192.544 C 148.029 193.692, 147.869 193.928, 149.708 193.961 C 152.271 194.006, 160 187.073, 160 184.727 C 160 182.644, 155.297 178.999, 152.615 179.004 C 151.452 179.006, 149.150 179.833, 147.500 180.842 M 311.881 189.998 C 298.417 196.951, 295.938 208.754, 308.244 207.313 C 317.078 206.278, 330 197.359, 330 192.297 C 330 191.285, 328.962 192.195, 327.431 194.550 C 322.897 201.523, 313.375 206.532, 305.989 205.831 C 302.923 205.540, 302.464 205.132, 302.203 202.464 C 301.969 200.080, 302.700 198.634, 305.604 195.729 C 311.623 189.711, 325.425 185.825, 328.800 189.200 C 329.603 190.003, 330 190.038, 330 189.307 C 330 185.854, 319.100 186.270, 311.881 189.998 M 169.723 197.107 C 161.327 198.399, 152.254 204.925, 149.350 211.759 C 148.136 214.618, 148.166 215.324, 149.598 217.509 C 152.966 222.649, 164.001 220.009, 171.546 212.258 C 176.595 207.071, 179.345 201.513, 178.055 199.103 C 176.702 196.575, 175.323 196.245, 169.723 197.107 M 163.329 200.427 C 150.239 206.522, 145.180 219, 155.799 219 C 164.685 219, 176.876 207.920, 176.978 199.750 C 177.011 197.113, 169.665 197.477, 163.329 200.427 M 226.195 212.817 C 222.850 215.942, 220.902 219.999, 219.143 227.500 C 214.604 246.858, 215.332 265.756, 220.780 270.042 C 222.971 271.765, 224.880 272, 236.675 272 C 251.901 272, 256.457 270.578, 260.035 264.710 C 262.129 261.275, 262.665 253.800, 261.104 249.797 C 260.611 248.534, 259.610 245.475, 258.878 243 C 255.574 231.819, 245.452 215.466, 239.642 211.923 C 234.967 209.073, 229.839 209.414, 226.195 212.817 M 230.441 221.450 C 227.323 226.208, 225.238 236.944, 225.072 249.091 C 224.878 263.228, 224.969 263.348, 236.305 263.862 C 246.378 264.320, 251.747 262.855, 252.611 259.416 C 254.215 253.024, 249.289 238.560, 241.613 227.120 C 235.865 218.553, 233.219 217.210, 230.441 221.450 M 230.479 224.250 C 226.085 234.990, 224.297 258.341, 227.654 261.128 C 229.482 262.645, 243.505 263.058, 248.235 261.735 C 253.150 260.360, 253.015 254.268, 247.777 241 C 244.082 231.641, 236.132 220, 233.434 220 C 232.765 220, 231.435 221.912, 230.479 224.250 M 12.293 248.523 L 9.087 252.923 11.358 254.711 C 12.607 255.695, 14.439 257.738, 15.430 259.250 C 17.345 262.175, 20 262.946, 20 260.577 C 20 259.794, 21.534 257.143, 23.410 254.686 C 25.907 251.414, 26.523 249.923, 25.710 249.110 C 25.099 248.499, 24.128 248.014, 23.550 248.030 C 22.973 248.047, 23.325 248.541, 24.334 249.127 C 26.100 250.154, 26.094 250.273, 24.189 252.347 C 23.100 253.531, 21.359 255.923, 20.319 257.663 L 18.428 260.825 14.344 256.628 L 10.260 252.432 13.481 248.595 L 16.702 244.759 19.601 246.498 L 22.500 248.237 20 246.141 C 18.625 244.988, 17.050 244.062, 16.500 244.084 C 15.950 244.106, 14.057 246.104, 12.293 248.523 M 442 270.500 C 443.866 272.425, 445.617 274, 445.892 274 C 446.167 274, 444.866 272.425, 443 270.500 C 441.134 268.575, 439.383 267, 439.108 267 C 438.833 267, 440.134 268.575, 442 270.500 M 427.753 275.275 C 424.591 278.699, 422.004 281.768, 422.003 282.095 C 422.001 282.422, 423.012 283.547, 424.250 284.595 L 426.500 286.500 424.569 284.222 L 422.639 281.944 426.604 277.722 C 431.450 272.562, 434.447 268.992, 433.905 269.025 C 433.682 269.039, 430.914 271.851, 427.753 275.275 M 447 274.449 C 447 274.724, 448.350 275.647, 450 276.500 C 451.650 277.353, 453 277.826, 453 277.551 C 453 277.276, 451.650 276.353, 450 275.500 C 448.350 274.647, 447 274.174, 447 274.449 M 454.360 278.694 C 454.742 279.075, 452.454 282.113, 449.277 285.444 L 443.500 291.500 449.750 285.531 C 455.979 279.583, 457.047 278, 454.833 278 C 454.192 278, 453.979 278.312, 454.360 278.694 M 427 286.659 C 427 287.205, 428.238 288.742, 429.750 290.076 L 432.500 292.500 430 289.500 C 428.625 287.850, 427.387 286.313, 427.250 286.083 C 427.113 285.854, 427 286.113, 427 286.659 M 438.631 300.520 C 438.292 301.404, 437.561 301.847, 437.007 301.504 C 436.453 301.162, 436 301.359, 436 301.941 C 436 302.523, 436.395 303, 436.878 303 C 438.059 303, 440.419 300.085, 439.766 299.433 C 439.481 299.147, 438.970 299.637, 438.631 300.520 M 26.243 313.292 C 24.617 315.400, 23.779 317.589, 25.319 315.704 C 26.714 313.998, 27.025 314.060, 31.589 316.954 C 34.231 318.630, 36.866 319.980, 37.446 319.956 C 38.026 319.931, 36.925 319.070, 35 318.041 C 33.075 317.012, 30.527 315.251, 29.337 314.128 C 27.709 312.589, 26.945 312.383, 26.243 313.292 M 40.750 321.833 C 41.712 322.842, 42.677 323.528, 42.893 323.357 C 43.483 322.892, 40.886 320, 39.878 320 C 39.395 320, 39.788 320.825, 40.750 321.833 M 17.079 325.750 C 17.036 326.988, 17.434 328, 17.965 328 C 18.496 328, 20.634 329.397, 22.715 331.105 C 26.362 334.097, 26.350 334.070, 22.412 330.355 C 20.164 328.235, 18.062 325.825, 17.741 325 C 17.347 323.987, 17.132 324.231, 17.079 325.750 M 38.338 326.250 C 35.026 329.956, 31.745 335.078, 32.317 335.651 C 32.612 335.945, 33.544 334.848, 34.390 333.213 C 35.236 331.578, 37.109 328.836, 38.553 327.120 C 41.553 323.555, 41.378 322.848, 38.338 326.250 M 460.747 336.250 C 462.517 337.488, 463.973 338.847, 463.983 339.271 C 464.010 340.506, 458.815 348, 457.931 348 C 457.489 348, 456.119 346.205, 454.886 344.011 C 453.653 341.817, 452.467 340.200, 452.250 340.417 C 451.507 341.159, 457.023 349, 458.263 348.963 C 459.551 348.925, 465 341.024, 465 339.193 C 465 337.930, 460.178 334, 458.629 334 C 458.024 334, 458.977 335.012, 460.747 336.250 M 31 337.940 C 31 338.662, 30.349 338.964, 29.500 338.638 C 28.675 338.322, 28 338.499, 28 339.031 C 28 339.564, 28.648 340, 29.441 340 C 31.071 340, 32.511 338.178, 31.600 337.267 C 31.270 336.937, 31 337.240, 31 337.940" stroke="none" fill="#7c9ce1" fill-rule="evenodd"/><path d="M 0 240.002 L 0 480.004 240.250 479.752 L 480.500 479.500 480.752 239.750 L 481.004 0 240.502 0 L 0 0 0 240.002 M 0.492 240.500 C 0.492 372.500, 0.608 426.351, 0.750 360.170 C 0.892 293.988, 0.892 185.988, 0.750 120.170 C 0.608 54.351, 0.492 108.500, 0.492 240.500 M 443.250 67.109 C 440.363 69.906, 438 72.404, 438 72.662 C 438 72.919, 439.251 74.181, 440.779 75.468 C 442.308 76.754, 444.184 78.975, 444.948 80.403 C 446.399 83.114, 450 83.997, 450 81.641 C 450 80.893, 451.867 78.161, 454.149 75.568 L 458.298 70.855 453.476 66.427 C 450.824 63.992, 448.619 62.006, 448.577 62.012 C 448.535 62.019, 446.137 64.313, 443.250 67.109 M 45.026 70.463 C 43.337 72.918, 41.178 75.368, 40.227 75.910 C 38.979 76.620, 38.777 77.279, 39.500 78.285 C 44.876 85.765, 46.606 87.930, 47.233 87.962 C 47.636 87.983, 49.052 85.862, 50.379 83.250 C 51.706 80.638, 53.974 77.228, 55.419 75.673 L 58.047 72.846 54.274 69.446 C 52.198 67.576, 49.959 66.036, 49.298 66.023 C 48.637 66.010, 46.714 68.008, 45.026 70.463 M 235 89.279 C 234.725 89.571, 230.900 90.050, 226.500 90.344 C 211.272 91.358, 202.917 92.785, 178.250 98.588 C 169.946 100.541, 161.192 103.123, 156.500 105.003 C 155.400 105.444, 151.575 106.833, 148 108.091 C 144.425 109.348, 140.024 111.192, 138.220 112.189 C 136.415 113.185, 134.509 114, 133.983 114 C 131.534 114, 118.385 122.954, 115.259 126.750 C 113.334 129.088, 111.322 131, 110.787 131 C 110.253 131, 108.700 130.123, 107.337 129.050 C 102.633 125.351, 94.389 123.671, 80.500 123.583 C 64.667 123.482, 57.014 124.999, 47 130.225 C 30.708 138.726, 22 151.901, 22 168.049 C 22 174.139, 22.509 176.693, 24.593 181.063 C 27.591 187.348, 32.207 192.550, 36.500 194.481 C 40.217 196.152, 49.777 197.031, 52.598 195.961 C 53.752 195.523, 57.034 192.227, 59.892 188.636 C 62.749 185.045, 66 181.818, 67.115 181.463 C 69.346 180.755, 73 183.374, 73 185.682 C 73 186.436, 70.552 190.021, 67.560 193.649 C 55.519 208.246, 48 228.762, 48 247.016 C 48 255.848, 49.088 262, 52.597 273 C 58.714 292.181, 77.885 310.952, 99 318.437 L 103.500 320.032 106.500 316.297 C 116.022 304.442, 127.085 296.054, 139.500 291.276 C 152.557 286.250, 156.581 285.500, 170.500 285.500 C 181.912 285.500, 184.233 285.794, 189.500 287.911 C 208.307 295.466, 217.346 312.056, 212.595 330.297 C 209.965 340.392, 202.947 352.258, 198.993 353.291 C 197.344 353.723, 196.551 353.127, 195.308 350.519 C 193.814 347.387, 193.841 347.032, 195.780 344.309 C 196.912 342.720, 199.315 338.738, 201.121 335.460 C 203.927 330.365, 204.411 328.484, 204.452 322.500 C 204.577 304.301, 192.094 294.039, 169.799 294.011 C 152.425 293.989, 133.636 301.416, 122.243 312.810 C 104.253 330.800, 95.379 356.025, 91.024 401.549 C 90.156 410.629, 90.504 439.380, 91.547 444.608 C 91.829 446.023, 93.533 447.337, 96.733 448.608 C 101.338 450.436, 106.510 450.497, 248.500 450.401 C 353.098 450.330, 396.275 449.983, 398.188 449.199 C 400.483 448.258, 400.868 447.518, 400.821 444.141 C 400.791 441.966, 401.040 439.745, 401.374 439.205 C 402.191 437.882, 403.287 425.233, 403.384 416 C 403.615 393.954, 399.887 363.306, 394.929 346.500 C 386.953 319.463, 377.328 303.429, 363.193 293.634 C 350.128 284.580, 328.333 283.322, 310 290.565 C 296.388 295.943, 285.511 307.913, 283.546 319.679 C 282.649 325.049, 285.201 335.263, 288.529 339.627 C 291.599 343.652, 291.622 345.067, 288.662 347.847 L 286.325 350.043 283.635 347.927 C 278.645 344.002, 274.025 332.021, 274.023 323 C 274.022 318.088, 275.869 311.107, 278.560 305.852 C 283.070 297.046, 295.167 286.391, 305 282.563 C 317.437 277.722, 318.187 277.592, 334 277.545 C 350.868 277.496, 352.860 277.898, 364.349 283.663 C 372.276 287.640, 370.755 288.101, 384.416 277.590 C 394.155 270.097, 404.322 257.678, 409.690 246.720 C 415.579 234.696, 419.976 215.765, 419.992 202.364 L 420 196.227 415.250 195.518 C 412.637 195.128, 409.230 194.065, 407.679 193.155 C 405.325 191.774, 404.952 191.024, 405.429 188.625 C 405.743 187.044, 406 185.307, 406 184.766 C 406 184.175, 407.500 184.051, 409.750 184.456 C 417.985 185.936, 425.245 186.145, 428.320 184.989 C 440.665 180.349, 448.563 173.798, 452.988 164.525 C 455.474 159.315, 456 156.957, 456 151.011 C 456 144.865, 455.497 142.758, 452.571 136.654 C 447.750 126.597, 437.345 116.652, 426 111.257 C 418.973 107.916, 397.140 103.177, 394.965 104.522 C 394.601 104.747, 389.622 105.375, 383.901 105.919 C 374.252 106.836, 364.911 108.924, 360.764 111.092 C 357.789 112.647, 354.495 112.107, 348.390 109.062 C 342.789 106.268, 329.553 101.344, 322 99.243 C 308.529 95.498, 297.361 93.062, 288.500 91.937 C 284.650 91.449, 279.925 90.846, 278 90.598 C 272.076 89.836, 235.531 88.715, 235 89.279 M 300.083 140.527 C 280.338 146.058, 265.327 164.485, 261.058 188.434 C 259.360 197.956, 260.264 212.877, 262.939 219.500 C 267.627 231.106, 276.209 241.619, 284.826 246.309 C 306.201 257.942, 332.720 258.819, 352.303 248.538 C 359.530 244.745, 366.381 239.067, 371.624 232.527 C 377.073 225.729, 378.793 221.631, 380.081 212.375 C 382.732 193.310, 376.138 172.985, 363.070 159.944 C 354.717 151.609, 351.085 148.909, 341.363 143.812 L 333.500 139.690 319.500 139.350 C 309.159 139.098, 304.084 139.406, 300.083 140.527 M 300.878 149.309 C 288.770 153.436, 279.939 162.155, 273.400 176.438 C 271.173 181.301, 270.066 185.807, 268.338 197.040 C 267.541 202.216, 270.487 216.282, 273.707 222.681 C 280.964 237.102, 300.695 247.379, 321 247.314 C 337.153 247.263, 350.092 241.997, 361.024 231.023 C 368.545 223.472, 370.761 219.385, 372.142 210.515 C 373.409 202.379, 371.124 188.154, 367.352 180.700 C 356.843 159.927, 337.119 146.963, 316.120 147.026 C 309.849 147.045, 305.696 147.667, 300.878 149.309 M 148.500 149.482 C 124.276 154.824, 109.303 165.309, 99.208 184 C 97.574 187.025, 95.909 190.625, 95.507 192 C 95.106 193.375, 94.219 195.850, 93.537 197.500 C 90.110 205.790, 87.144 229.618, 88.948 234.364 C 89.527 235.885, 90 238.096, 90 239.276 C 90 244.064, 94.575 253.282, 99.500 258.415 C 108.689 267.993, 120.072 271.658, 137.500 270.649 C 147.176 270.089, 148.794 269.882, 152 268.792 C 152.825 268.512, 155.300 267.739, 157.500 267.075 C 173.072 262.375, 186.189 253.347, 195.387 241 C 204.653 228.561, 208.354 217.360, 208.440 201.500 C 208.505 189.575, 207.658 185.854, 202.403 174.983 C 197.445 164.727, 186.341 155.252, 174.500 151.172 C 171.037 149.979, 159.245 147.962, 156.418 148.079 C 155.363 148.123, 151.800 148.754, 148.500 149.482 M 147 158.466 C 122.153 164.781, 107.118 179.841, 99.842 205.700 C 96.636 217.094, 96.646 235.176, 99.863 243.266 C 103.006 251.172, 105.995 254.380, 113.791 258.218 C 120.330 261.437, 120.718 261.500, 133.979 261.500 C 144.515 261.500, 148.824 261.079, 153.500 259.593 C 156.800 258.544, 159.927 257.307, 160.450 256.843 C 160.972 256.379, 161.918 256, 162.550 256 C 165.300 256, 177.031 247.969, 183 242 C 194.110 230.890, 200 216.912, 200 201.656 C 200 191.701, 199.250 188.472, 194.799 179.251 C 188.765 166.750, 175.515 158.173, 160 156.725 C 157.327 156.476, 152.049 157.182, 147 158.466 M 299.500 161.439 C 278.995 169.918, 272.915 199.807, 289.465 210.769 C 300.633 218.167, 319.531 215.743, 330.922 205.451 C 335.823 201.024, 336.716 199.532, 338.438 192.892 C 339.843 187.474, 338.793 180.333, 335.728 174.477 C 331.864 167.093, 321.314 160.751, 310.937 159.574 C 306.493 159.071, 304.404 159.411, 299.500 161.439 M 150.715 170.999 C 141.390 173.927, 136.608 177.770, 132.045 186 C 129.859 189.944, 129.547 191.736, 129.525 200.500 C 129.502 209.727, 129.728 210.912, 132.449 215.824 C 137.333 224.640, 143.472 228.145, 154.131 228.203 C 160.891 228.239, 162.469 227.867, 167.957 224.942 C 182.360 217.266, 189.660 201.666, 185.519 187.413 C 184.177 182.796, 182.672 180.373, 178.650 176.360 C 171.056 168.780, 162.817 167.199, 150.715 170.999 M 297.003 172.616 C 292.702 176.502, 291.896 179.753, 294.571 182.429 C 299.859 187.716, 312.715 179.641, 310.073 172.693 C 308.196 167.754, 302.422 167.721, 297.003 172.616 M 147.500 180.842 C 142.956 183.620, 141.839 185.477, 142.185 189.680 C 142.497 193.464, 142.543 193.503, 147.154 193.801 C 151.382 194.074, 152.184 193.745, 155.904 190.206 C 160.688 185.655, 160.968 183.906, 157.365 181.073 C 154.119 178.519, 151.403 178.455, 147.500 180.842 M 311.881 189.998 C 302.367 194.911, 297.562 202.607, 301.843 206.074 C 308.418 211.398, 330 199.923, 330 191.104 C 330 187.702, 328.609 186.982, 322.168 187.048 C 319.047 187.080, 315.638 188.058, 311.881 189.998 M 169.723 197.107 C 161.327 198.399, 152.254 204.925, 149.350 211.759 C 148.136 214.618, 148.166 215.324, 149.598 217.509 C 152.966 222.649, 164.001 220.009, 171.546 212.258 C 176.595 207.071, 179.345 201.513, 178.055 199.103 C 176.702 196.575, 175.323 196.245, 169.723 197.107 M 226.195 212.817 C 222.850 215.942, 220.902 219.999, 219.143 227.500 C 214.604 246.858, 215.332 265.756, 220.780 270.042 C 222.971 271.765, 224.880 272, 236.675 272 C 251.901 272, 256.457 270.578, 260.035 264.710 C 262.129 261.275, 262.665 253.800, 261.104 249.797 C 260.611 248.534, 259.610 245.475, 258.878 243 C 255.574 231.819, 245.452 215.466, 239.642 211.923 C 234.967 209.073, 229.839 209.414, 226.195 212.817 M 230.441 221.450 C 227.323 226.208, 225.238 236.944, 225.072 249.091 C 224.878 263.228, 224.969 263.348, 236.305 263.862 C 246.378 264.320, 251.747 262.855, 252.611 259.416 C 254.215 253.024, 249.289 238.560, 241.613 227.120 C 235.865 218.553, 233.219 217.210, 230.441 221.450 M 12.293 248.523 L 9.087 252.923 11.358 254.711 C 12.607 255.695, 14.439 257.738, 15.430 259.250 C 17.345 262.175, 20 262.946, 20 260.577 C 20 259.794, 21.534 257.143, 23.410 254.686 C 25.907 251.414, 26.523 249.923, 25.710 249.110 C 25.099 248.499, 24.128 247.990, 23.550 247.978 C 22.973 247.966, 21.375 247.076, 20 246 C 18.625 244.924, 17.050 244.062, 16.500 244.084 C 15.950 244.106, 14.057 246.104, 12.293 248.523 M 435.041 265.901 C 434.360 267.544, 431.148 271.723, 427.902 275.187 C 424.656 278.652, 422.005 281.715, 422.012 281.993 C 422.018 282.272, 424.185 284.638, 426.827 287.251 C 431.631 292.003, 436 298.874, 436 301.678 C 436 304.553, 438.491 302.290, 441.548 296.637 C 443.246 293.496, 447.279 288.255, 450.510 284.989 C 453.742 281.724, 456.186 278.905, 455.943 278.724 C 455.699 278.544, 453.316 277.295, 450.647 275.948 C 447.977 274.602, 443.652 271.118, 441.036 268.207 L 436.279 262.913 435.041 265.901 M 24.069 316.720 C 22.446 319.349, 20.192 322.162, 19.059 322.971 C 16.450 324.835, 16.405 327.676, 18.972 328.491 C 21.308 329.233, 28 336.785, 28 338.680 C 28 341.657, 31.011 339.693, 33.180 335.302 C 34.456 332.717, 37.176 328.831, 39.225 326.665 C 41.273 324.499, 42.727 322.368, 42.456 321.928 C 42.184 321.489, 39.608 320.032, 36.731 318.690 C 33.854 317.349, 30.492 315.281, 29.259 314.095 L 27.019 311.940 24.069 316.720 M 455.275 337.687 L 452.050 341.119 454.538 345.060 C 455.906 347.227, 457.582 348.984, 458.263 348.963 C 459.551 348.925, 465 341.024, 465 339.193 C 465 338.081, 460.156 333.912, 459.115 334.127 C 458.777 334.197, 457.049 335.799, 455.275 337.687" stroke="none" fill="#0a0b0d" fill-rule="evenodd"/></svg>